<svg width="174" height="131" viewBox="0 0 174 131" fill="none" xmlns="http://www.w3.org/2000/svg">
<path fill-rule="evenodd" clip-rule="evenodd" d="M153.12 113.62H156V117.1H155.41V114.1H153.77V117.1H153.17V113.62H153.12ZM156.99 113.62H158.26C158.618 113.602 158.971 113.708 159.26 113.92C159.369 114.024 159.456 114.15 159.512 114.289C159.569 114.429 159.596 114.579 159.59 114.73C159.6 114.881 159.575 115.033 159.518 115.173C159.461 115.313 159.373 115.439 159.26 115.54C158.973 115.756 158.618 115.862 158.26 115.84H157.59V117.1H157V113.62H156.99ZM158.21 115.32C158.339 115.337 158.471 115.337 158.6 115.32C158.689 115.303 158.774 115.269 158.85 115.22C158.916 115.173 158.965 115.107 158.99 115.03C159.001 114.944 159.001 114.856 158.99 114.77C159.001 114.684 159.001 114.596 158.99 114.51C158.962 114.438 158.913 114.375 158.85 114.33C158.777 114.274 158.691 114.236 158.6 114.22C158.471 114.203 158.339 114.203 158.21 114.22H157.59V115.3L158.21 115.32ZM161.83 117.15C161.622 117.153 161.416 117.12 161.22 117.05C161.029 116.986 160.855 116.88 160.71 116.74C160.559 116.587 160.442 116.403 160.37 116.2C160.277 115.94 160.233 115.666 160.24 115.39V115.3C160.231 115.034 160.275 114.769 160.37 114.52C160.442 114.317 160.559 114.133 160.71 113.98C160.855 113.843 161.029 113.74 161.22 113.68C161.416 113.611 161.622 113.577 161.83 113.58C162.034 113.577 162.238 113.611 162.43 113.68C162.621 113.74 162.795 113.843 162.94 113.98C163.091 114.135 163.21 114.319 163.29 114.52C163.376 114.771 163.417 115.035 163.41 115.3V115.4C163.415 115.675 163.375 115.949 163.29 116.21C163.21 116.412 163.091 116.595 162.94 116.75C162.795 116.89 162.621 116.996 162.43 117.06C162.238 117.129 162.034 117.163 161.83 117.16V117.15ZM161.83 116.63C161.95 116.632 162.07 116.608 162.18 116.56C162.3 116.519 162.407 116.446 162.49 116.35C162.587 116.239 162.662 116.11 162.71 115.97C162.765 115.782 162.792 115.586 162.79 115.39V115.3C162.793 115.11 162.766 114.921 162.71 114.74C162.663 114.606 162.588 114.483 162.49 114.38C162.407 114.284 162.3 114.211 162.18 114.17C162.068 114.129 161.949 114.109 161.83 114.11C161.704 114.11 161.579 114.13 161.46 114.17C161.344 114.214 161.241 114.286 161.16 114.38C161.062 114.483 160.987 114.606 160.94 114.74C160.884 114.921 160.857 115.11 160.86 115.3V115.4C160.858 115.596 160.885 115.792 160.94 115.98C160.988 116.12 161.063 116.249 161.16 116.36C161.241 116.454 161.344 116.526 161.46 116.57C161.577 116.618 161.703 116.642 161.83 116.64V116.63ZM164.28 113.63H166.61V114.15H164.87V115.06H166.46V115.58H164.87V116.58H166.61V117.1H164.28V113.62V113.63ZM167.48 113.63H168.07V115.09H168.42L169.68 113.63H170.35L168.89 115.3L170.4 117.12H169.68L168.42 115.57H168.07V117.12H167.48V113.64V113.63ZM171.99 114.15H170.82V113.63H173.75V114.15H172.58V117.15H172V114.15H171.99ZM90.09 120.44H92.45V120.96H90.68V121.75H91.4C91.6063 121.743 91.8124 121.77 92.01 121.83C92.1626 121.871 92.3055 121.943 92.43 122.04C92.5445 122.131 92.6311 122.252 92.68 122.39C92.7394 122.529 92.7701 122.679 92.7701 122.83C92.7701 122.981 92.7394 123.131 92.68 123.27C92.6311 123.408 92.5445 123.529 92.43 123.62C92.3062 123.721 92.1633 123.796 92.01 123.84C91.8109 123.892 91.6056 123.915 91.4 123.91H90.09V120.44ZM91.35 123.44C91.4797 123.453 91.6103 123.453 91.74 123.44C91.834 123.424 91.9229 123.386 92 123.33C92.0591 123.287 92.1044 123.228 92.13 123.16C92.1459 123.077 92.1459 122.993 92.13 122.91C92.147 122.828 92.147 122.743 92.13 122.66C92.1017 122.593 92.057 122.535 92 122.49C91.9207 122.438 91.8326 122.401 91.74 122.38C91.6103 122.368 91.4797 122.368 91.35 122.38H90.68V123.51L91.35 123.44ZM93.41 124.01H93.23V123.45H93.31C93.3925 123.455 93.474 123.43 93.54 123.38C93.624 123.308 93.6806 123.209 93.7 123.1C93.7451 122.896 93.7719 122.689 93.78 122.48C93.78 122.21 93.78 121.85 93.78 121.39V120.5H96.21V123.97H95.61V121.02H94.35V121.49C94.3551 121.928 94.3351 122.365 94.29 122.8C94.2665 123.064 94.2059 123.323 94.11 123.57C94.0451 123.721 93.9373 123.85 93.8 123.94C93.6689 124.002 93.5251 124.033 93.38 124.03L93.41 124.01ZM99.2 123.17H97.79L97.5 123.95H96.9L98.22 120.48H98.81L100.13 123.95H99.49L99.2 123.17ZM98 122.6H99L98.49 121.17L98 122.6ZM100.81 120.43H103V120.95H101.36V123.9H100.77V120.43H100.81ZM105.04 123.96C104.836 123.958 104.634 123.924 104.44 123.86C104.251 123.792 104.077 123.687 103.93 123.55C103.776 123.393 103.657 123.206 103.58 123C103.494 122.739 103.453 122.465 103.46 122.19V122.09C103.454 121.825 103.495 121.561 103.58 121.31C103.653 121.115 103.767 120.939 103.916 120.794C104.065 120.649 104.244 120.538 104.44 120.47C104.832 120.337 105.258 120.337 105.65 120.47C105.839 120.538 106.013 120.643 106.16 120.78C106.314 120.927 106.43 121.109 106.5 121.31C106.593 121.559 106.637 121.824 106.63 122.09V122.19C106.639 122.466 106.595 122.741 106.5 123C106.43 123.207 106.314 123.395 106.16 123.55C106.013 123.687 105.839 123.792 105.65 123.86C105.453 123.925 105.247 123.959 105.04 123.96ZM105.04 123.43C105.163 123.432 105.285 123.412 105.4 123.37C105.516 123.32 105.621 123.249 105.71 123.16C105.807 123.045 105.882 122.913 105.93 122.77C105.986 122.582 106.013 122.386 106.01 122.19V122.09C106.013 121.904 105.986 121.718 105.93 121.54C105.879 121.405 105.805 121.279 105.71 121.17C105.624 121.08 105.518 121.011 105.4 120.97C105.286 120.921 105.164 120.897 105.04 120.9C104.917 120.899 104.794 120.923 104.68 120.97C104.564 121.014 104.458 121.082 104.37 121.17C104.274 121.277 104.203 121.403 104.16 121.54C104.104 121.718 104.077 121.904 104.08 122.09V122.19C104.077 122.386 104.104 122.582 104.16 122.77C104.2 122.914 104.272 123.047 104.37 123.16C104.46 123.248 104.565 123.319 104.68 123.37C104.796 123.409 104.918 123.43 105.04 123.43ZM108.22 120.95H107V120.43H110V120.95H108.8V123.9H108.21V120.95H108.22ZM110.67 120.43H112.06C112.368 120.402 112.675 120.492 112.92 120.68C113.013 120.766 113.087 120.872 113.135 120.989C113.184 121.107 113.206 121.233 113.2 121.36C113.203 121.524 113.154 121.685 113.06 121.82C112.965 121.948 112.832 122.042 112.68 122.09C112.869 122.13 113.04 122.228 113.17 122.37C113.294 122.526 113.358 122.721 113.35 122.92C113.354 123.057 113.33 123.193 113.28 123.32C113.231 123.439 113.156 123.545 113.06 123.63C112.954 123.724 112.827 123.793 112.69 123.83C112.511 123.882 112.326 123.905 112.14 123.9H110.67V120.43ZM112.07 123.43C112.26 123.451 112.451 123.405 112.61 123.3C112.661 123.252 112.7 123.192 112.724 123.126C112.748 123.06 112.757 122.99 112.75 122.92C112.761 122.847 112.761 122.773 112.75 122.7C112.729 122.632 112.687 122.572 112.63 122.53C112.569 122.481 112.497 122.447 112.42 122.43C112.314 122.417 112.206 122.417 112.1 122.43H111.3V123.43H112.07ZM111.98 121.92C112.154 121.936 112.327 121.89 112.47 121.79C112.515 121.744 112.55 121.689 112.572 121.629C112.595 121.569 112.604 121.504 112.6 121.44C112.605 121.377 112.596 121.314 112.574 121.255C112.551 121.196 112.516 121.143 112.47 121.1C112.324 121.008 112.151 120.969 111.98 120.99H111.27V121.92H111.98ZM115.55 124C115.346 123.998 115.144 123.964 114.95 123.9C114.761 123.832 114.587 123.727 114.44 123.59C114.286 123.435 114.17 123.247 114.1 123.04C114.005 122.781 113.961 122.506 113.97 122.23V122.13C113.963 121.864 114.007 121.599 114.1 121.35C114.17 121.149 114.286 120.967 114.44 120.82C114.587 120.683 114.761 120.578 114.95 120.51C115.342 120.377 115.768 120.377 116.16 120.51C116.349 120.578 116.523 120.683 116.67 120.82C116.824 120.967 116.94 121.149 117.01 121.35C117.103 121.599 117.147 121.864 117.14 122.13V122.23C117.149 122.506 117.105 122.781 117.01 123.04C116.94 123.247 116.824 123.435 116.67 123.59C116.523 123.727 116.349 123.832 116.16 123.9C115.963 123.965 115.757 123.999 115.55 124ZM115.55 123.47C115.673 123.47 115.794 123.45 115.91 123.41C116.026 123.36 116.131 123.289 116.22 123.2C116.318 123.087 116.39 122.954 116.43 122.81C116.495 122.624 116.525 122.427 116.52 122.23V122.13C116.525 121.943 116.495 121.756 116.43 121.58C116.387 121.443 116.316 121.317 116.22 121.21C116.134 121.12 116.028 121.051 115.91 121.01C115.796 120.962 115.674 120.938 115.55 120.94C115.427 120.939 115.304 120.963 115.19 121.01C115.074 121.054 114.968 121.122 114.88 121.21C114.784 121.317 114.713 121.443 114.67 121.58C114.614 121.758 114.587 121.944 114.59 122.13V122.23C114.587 122.426 114.614 122.622 114.67 122.81C114.71 122.954 114.782 123.087 114.88 123.2C114.97 123.288 115.075 123.359 115.19 123.41C115.306 123.449 115.428 123.47 115.55 123.47ZM118.01 120.47H119.27C119.629 120.446 119.984 120.553 120.27 120.77C120.378 120.874 120.464 121 120.522 121.138C120.581 121.276 120.611 121.425 120.611 121.575C120.611 121.725 120.581 121.874 120.522 122.012C120.464 122.151 120.378 122.276 120.27 122.38C119.984 122.597 119.629 122.704 119.27 122.68H118.6V123.94H118V120.47H118.01ZM119.22 122.17C119.35 122.183 119.48 122.183 119.61 122.17C119.703 122.15 119.791 122.112 119.87 122.06C119.93 122.014 119.976 121.952 120 121.88C120.015 121.794 120.015 121.706 120 121.62C120.017 121.534 120.017 121.446 120 121.36C119.976 121.286 119.931 121.22 119.87 121.17C119.791 121.118 119.703 121.081 119.61 121.06C119.48 121.048 119.35 121.048 119.22 121.06H118.6V122.24L119.22 122.17ZM121.43 120.47H122V123L123.71 120.47H124.29V123.94H123.69V121.41L122 123.9H121.43V120.43V120.47ZM126.16 120.99H125V120.47H127.92V120.99H126.76V123.94H126.16V120.99ZM128.62 120.47H130.95V120.99H129.2V121.9H130.79V122.41H129.2V123.41H130.94V123.92H128.61V120.45L128.62 120.47ZM131.62 124H131.45V123.44H131.52C131.606 123.444 131.69 123.42 131.76 123.37C131.84 123.296 131.893 123.198 131.91 123.09C131.959 122.887 131.99 122.679 132 122.47C132 122.2 132 121.84 132 121.38V120.49H134.43V123.96H133.84V121.01H132.58V121.48C132.588 121.918 132.564 122.356 132.51 122.79C132.486 123.054 132.426 123.313 132.33 123.56C132.272 123.712 132.167 123.842 132.03 123.93C131.896 123.994 131.748 124.024 131.6 124.02L131.62 124ZM135.49 120.47H136.09V121.78H136.76C136.963 121.773 137.166 121.8 137.36 121.86C137.516 121.901 137.662 121.973 137.79 122.07C137.901 122.164 137.987 122.284 138.04 122.42C138.147 122.704 138.147 123.016 138.04 123.3C137.987 123.436 137.901 123.556 137.79 123.65C137.662 123.751 137.516 123.826 137.36 123.87C137.164 123.922 136.962 123.945 136.76 123.94H135.49V120.47ZM136.71 123.47C136.84 123.482 136.97 123.482 137.1 123.47C137.191 123.454 137.277 123.416 137.35 123.36C137.415 123.321 137.464 123.261 137.49 123.19C137.501 123.107 137.501 123.023 137.49 122.94C137.501 122.86 137.501 122.78 137.49 122.7C137.464 122.626 137.415 122.563 137.35 122.52C137.274 122.468 137.19 122.43 137.1 122.41C136.97 122.399 136.84 122.399 136.71 122.41H136.09V123.54L136.71 123.47ZM138.91 120.47H139.51V121.9H141.19V120.47H141.79V123.94H141.19V122.41H139.51V123.94H138.91V120.47ZM144.24 124C144.036 123.998 143.834 123.964 143.64 123.9C143.451 123.832 143.277 123.727 143.13 123.59C142.976 123.433 142.857 123.246 142.78 123.04C142.69 122.78 142.646 122.506 142.65 122.23V122.13C142.647 121.864 142.691 121.6 142.78 121.35C142.853 121.155 142.967 120.979 143.116 120.834C143.265 120.689 143.444 120.578 143.64 120.51C143.834 120.446 144.036 120.413 144.24 120.41C144.447 120.412 144.653 120.446 144.85 120.51C145.037 120.576 145.208 120.681 145.35 120.82C145.51 120.964 145.631 121.146 145.7 121.35C145.793 121.599 145.837 121.864 145.83 122.13V122.23C145.839 122.506 145.795 122.781 145.7 123.04C145.63 123.249 145.51 123.438 145.35 123.59C145.208 123.729 145.037 123.834 144.85 123.9C144.653 123.964 144.447 123.998 144.24 124ZM144.24 123.47C144.362 123.47 144.484 123.449 144.6 123.41C144.716 123.36 144.821 123.289 144.91 123.2C145.008 123.087 145.08 122.954 145.12 122.81C145.185 122.624 145.215 122.427 145.21 122.23V122.13C145.215 121.943 145.185 121.756 145.12 121.58C145.077 121.443 145.006 121.317 144.91 121.21C144.824 121.12 144.718 121.051 144.6 121.01C144.368 120.921 144.112 120.921 143.88 121.01C143.762 121.051 143.656 121.12 143.57 121.21C143.474 121.317 143.403 121.443 143.36 121.58C143.304 121.758 143.277 121.944 143.28 122.13V122.23C143.277 122.426 143.304 122.622 143.36 122.81C143.4 122.954 143.472 123.087 143.57 123.2C143.659 123.289 143.764 123.36 143.88 123.41C143.996 123.449 144.118 123.47 144.24 123.47ZM146.7 120.47H149V120.99H147.36V123.94H146.77V120.47H146.7ZM150.94 124C150.733 123.999 150.527 123.965 150.33 123.9C150.141 123.832 149.967 123.727 149.82 123.59C149.666 123.435 149.55 123.247 149.48 123.04C149.385 122.781 149.341 122.506 149.35 122.23V122.13C149.343 121.864 149.387 121.599 149.48 121.35C149.55 121.149 149.666 120.967 149.82 120.82C149.967 120.683 150.141 120.578 150.33 120.51C150.722 120.377 151.148 120.377 151.54 120.51C151.729 120.578 151.903 120.683 152.05 120.82C152.204 120.967 152.32 121.149 152.39 121.35C152.483 121.599 152.527 121.864 152.52 122.13V122.23C152.529 122.506 152.485 122.781 152.39 123.04C152.32 123.247 152.204 123.435 152.05 123.59C151.903 123.727 151.729 123.832 151.54 123.9C151.346 123.964 151.144 123.998 150.94 124ZM150.94 123.47C151.059 123.471 151.178 123.451 151.29 123.41C151.406 123.36 151.511 123.289 151.6 123.2C151.697 123.085 151.772 122.953 151.82 122.81C151.876 122.622 151.903 122.426 151.9 122.23V122.13C151.903 121.944 151.876 121.758 151.82 121.58C151.769 121.445 151.695 121.319 151.6 121.21C151.514 121.12 151.408 121.051 151.29 121.01C151.18 120.962 151.06 120.938 150.94 120.94C150.813 120.938 150.687 120.962 150.57 121.01C150.454 121.054 150.348 121.122 150.26 121.21C150.168 121.32 150.097 121.445 150.05 121.58C149.994 121.758 149.967 121.944 149.97 122.13V122.23C149.967 122.426 149.994 122.622 150.05 122.81C150.095 122.952 150.166 123.084 150.26 123.2C150.35 123.288 150.455 123.359 150.57 123.41C150.689 123.45 150.814 123.47 150.94 123.47ZM156.07 123.76C155.832 123.763 155.595 123.726 155.37 123.65C155.176 123.582 154.998 123.473 154.85 123.33C154.712 123.192 154.606 123.024 154.54 122.84C154.466 122.638 154.429 122.425 154.43 122.21V122.11C154.429 121.905 154.466 121.701 154.54 121.51C154.606 121.335 154.712 121.177 154.85 121.05C155 120.917 155.178 120.818 155.37 120.76C155.595 120.684 155.832 120.647 156.07 120.65V120.3H156.66V120.63C156.898 120.628 157.134 120.665 157.36 120.74C157.548 120.8 157.722 120.899 157.87 121.03C158.011 121.157 158.12 121.314 158.19 121.49C158.264 121.681 158.301 121.885 158.3 122.09V122.19C158.301 122.405 158.264 122.618 158.19 122.82C158.121 123.005 158.011 123.172 157.87 123.31C157.724 123.451 157.55 123.559 157.36 123.63C157.134 123.705 156.898 123.743 156.66 123.74V124.07H156.07V123.74V123.76ZM157.68 122.11C157.688 121.983 157.669 121.856 157.624 121.737C157.579 121.618 157.51 121.51 157.42 121.42C157.207 121.245 156.935 121.159 156.66 121.18V123.18C156.8 123.192 156.941 123.174 157.074 123.127C157.206 123.081 157.328 123.007 157.43 122.91C157.605 122.701 157.694 122.433 157.68 122.16V122.06V122.11ZM155.05 122.21C155.04 122.346 155.058 122.483 155.102 122.612C155.147 122.741 155.218 122.859 155.31 122.96C155.411 123.055 155.531 123.129 155.662 123.175C155.792 123.222 155.932 123.24 156.07 123.23V121.23C155.934 121.216 155.796 121.23 155.665 121.271C155.534 121.312 155.413 121.38 155.31 121.47C155.22 121.56 155.151 121.668 155.106 121.787C155.061 121.906 155.042 122.033 155.05 122.16V122.26V122.21ZM160.56 124C160.353 123.999 160.147 123.965 159.95 123.9C159.761 123.832 159.587 123.727 159.44 123.59C159.286 123.435 159.17 123.247 159.1 123.04C159.005 122.781 158.961 122.506 158.97 122.23V122.13C158.963 121.864 159.007 121.599 159.1 121.35C159.17 121.149 159.286 120.967 159.44 120.82C159.587 120.683 159.761 120.578 159.95 120.51C160.342 120.377 160.768 120.377 161.16 120.51C161.349 120.578 161.523 120.683 161.67 120.82C161.824 120.967 161.94 121.149 162.01 121.35C162.103 121.599 162.147 121.864 162.14 122.13V122.23C162.149 122.506 162.105 122.781 162.01 123.04C161.94 123.247 161.824 123.435 161.67 123.59C161.523 123.727 161.349 123.832 161.16 123.9C160.966 123.964 160.764 123.998 160.56 124ZM160.56 123.47C160.679 123.471 160.798 123.451 160.91 123.41C161.026 123.36 161.131 123.289 161.22 123.2C161.317 123.085 161.392 122.953 161.44 122.81C161.496 122.622 161.523 122.426 161.52 122.23V122.13C161.523 121.944 161.496 121.758 161.44 121.58C161.389 121.445 161.315 121.319 161.22 121.21C161.134 121.12 161.028 121.051 160.91 121.01C160.8 120.962 160.68 120.938 160.56 120.94C160.433 120.938 160.307 120.962 160.19 121.01C160.075 121.051 159.972 121.12 159.89 121.21C159.791 121.316 159.716 121.442 159.67 121.58C159.614 121.758 159.587 121.944 159.59 122.13V122.23C159.587 122.426 159.614 122.622 159.67 122.81C159.713 122.955 159.788 123.088 159.89 123.2C159.975 123.29 160.077 123.361 160.19 123.41C160.309 123.45 160.434 123.47 160.56 123.47ZM163.01 120.47H163.6V121.9H165.29V120.47H165.89V123.94H165.29V122.41H163.6V123.94H163V120.47H163.01ZM166.58 123.47H167C167.066 123.326 167.117 123.175 167.15 123.02C167.192 122.836 167.222 122.648 167.24 122.46C167.251 122.257 167.251 122.053 167.24 121.85C167.24 121.65 167.24 121.45 167.24 121.25V120.51H169.59V123.51H169.99V124.67H169.45V124.02H167.11V124.67H166.57V123.51L166.58 123.47ZM169 123.47V121.03H167.82V121.3C167.826 121.711 167.802 122.122 167.75 122.53C167.716 122.833 167.649 123.132 167.55 123.42L169 123.47ZM172.82 123.2H171.41L171.11 123.98H170.52L171.83 120.51H172.43L173.74 123.98H173.11L172.82 123.2ZM171.6 122.68H172.6L172.1 121.25L171.58 122.68H171.6ZM111.32 129.68V129.22L112.42 128.29V128.88L111.75 129.44L112.42 130V130.62L111.32 129.68ZM112.49 129.68V129.22L113.58 128.29V128.88L112.91 129.44L113.58 130V130.62L112.49 129.68ZM114.49 127.34H117.32V130.82H116.72V127.82H115.08V130.82H114.49V127.34ZM120.28 130.03H118.87L118.58 130.82H118L119.32 127.34H119.91L121.23 130.82H120.59L120.3 130.03H120.28ZM119.06 129.52H120.06L119.55 128.09L119.03 129.52H119.06ZM121.87 127.34H122.49L123.6 129.4L124.7 127.34H125.3V130.82H124.7V128.3L123.78 130.01H123.39L122.47 128.3V130.73H121.87V127.25V127.34ZM127 129.3C126.77 129.242 126.565 129.108 126.42 128.92C126.292 128.743 126.225 128.529 126.23 128.31C126.23 128.16 126.257 128.011 126.31 127.87C126.366 127.739 126.452 127.623 126.56 127.53C126.681 127.428 126.82 127.35 126.97 127.3C127.155 127.245 127.347 127.218 127.54 127.22H128.86V130.7H128.26V129.37H127.53L126.76 130.7H126.13L127 129.3ZM126.82 128.3C126.817 128.378 126.831 128.455 126.863 128.526C126.894 128.597 126.941 128.66 127 128.71C127.19 128.831 127.416 128.884 127.64 128.86H128.26V127.73H127.64C127.416 127.707 127.19 127.759 127 127.88C126.94 127.932 126.893 127.996 126.861 128.069C126.83 128.142 126.816 128.221 126.82 128.3ZM130.71 127.73H129.5V127.21H132.43V127.73H131.26V130.73H130.66V127.73H130.71ZM133.17 127.21H133.76V128.52H134.43C134.636 128.517 134.842 128.544 135.04 128.6C135.197 128.643 135.344 128.718 135.47 128.82C135.578 128.913 135.664 129.029 135.72 129.16C135.774 129.304 135.801 129.456 135.8 129.61C135.8 129.76 135.773 129.91 135.72 130.05C135.664 130.181 135.578 130.297 135.47 130.39C135.344 130.493 135.197 130.567 135.04 130.61C134.842 130.666 134.636 130.693 134.43 130.69H133.17V127.21ZM134.38 130.21C134.513 130.227 134.647 130.227 134.78 130.21C134.869 130.193 134.954 130.159 135.03 130.11C135.09 130.064 135.136 130.002 135.16 129.93C135.176 129.851 135.176 129.769 135.16 129.69C135.177 129.608 135.177 129.523 135.16 129.44C135.136 129.368 135.09 129.306 135.03 129.26C134.954 129.211 134.869 129.177 134.78 129.16C134.647 129.143 134.513 129.143 134.38 129.16H133.76V130.29L134.38 130.21ZM137.83 127.21H140.66V130.69H140V127.69H138.36V130.69H137.77V127.21H137.83ZM143.11 130.74C142.906 130.743 142.702 130.709 142.51 130.64C142.318 130.578 142.143 130.472 142 130.33C141.845 130.178 141.726 129.993 141.65 129.79C141.561 129.526 141.517 129.249 141.52 128.97V128.88C141.517 128.611 141.561 128.344 141.65 128.09C141.728 127.891 141.848 127.71 142 127.56C142.146 127.421 142.32 127.316 142.51 127.25C142.704 127.19 142.907 127.159 143.11 127.16C143.317 127.16 143.522 127.19 143.72 127.25C143.907 127.316 144.078 127.421 144.22 127.56C144.372 127.71 144.492 127.891 144.57 128.09C144.664 128.342 144.708 128.611 144.7 128.88V128.97C144.708 129.249 144.664 129.527 144.57 129.79C144.494 129.993 144.375 130.178 144.22 130.33C144.081 130.472 143.909 130.578 143.72 130.64C143.524 130.708 143.318 130.742 143.11 130.74ZM143.11 130.22C143.233 130.216 143.355 130.193 143.47 130.15C143.589 130.106 143.695 130.034 143.78 129.94C143.872 129.827 143.943 129.698 143.99 129.56C144.051 129.37 144.078 129.17 144.07 128.97V128.88C144.078 128.69 144.051 128.5 143.99 128.32C143.946 128.187 143.875 128.064 143.78 127.96C143.695 127.866 143.589 127.794 143.47 127.75C143.355 127.708 143.233 127.684 143.11 127.68C142.987 127.681 142.865 127.705 142.75 127.75C142.63 127.791 142.523 127.864 142.44 127.96C142.343 128.062 142.271 128.185 142.23 128.32C142.169 128.5 142.142 128.69 142.15 128.88V128.97C142.142 129.17 142.169 129.37 142.23 129.56C142.273 129.7 142.345 129.829 142.44 129.94C142.523 130.036 142.63 130.109 142.75 130.15C142.865 130.195 142.987 130.219 143.11 130.22ZM145.56 127.22H146.16V128.68H146.51L147.77 127.22H148.44L146.98 128.88L148.49 130.7H147.77L146.51 129.14H146.16V130.7H145.56V127.22ZM150.56 130.75C150.356 130.753 150.152 130.719 149.96 130.65C149.769 130.586 149.595 130.48 149.45 130.34C149.295 130.188 149.176 130.003 149.1 129.8C149.011 129.536 148.967 129.259 148.97 128.98V128.89C148.967 128.621 149.011 128.354 149.1 128.1C149.178 127.901 149.298 127.72 149.45 127.57C149.597 127.433 149.771 127.328 149.96 127.26C150.154 127.2 150.357 127.169 150.56 127.17C150.767 127.168 150.973 127.199 151.17 127.26C151.357 127.326 151.528 127.431 151.67 127.57C151.826 127.718 151.945 127.899 152.02 128.1C152.114 128.352 152.158 128.621 152.15 128.89V128.98C152.158 129.259 152.114 129.537 152.02 129.8C151.948 130.005 151.828 130.19 151.67 130.34C151.531 130.482 151.359 130.588 151.17 130.65C150.974 130.719 150.768 130.753 150.56 130.75ZM150.56 130.23C150.683 130.226 150.805 130.203 150.92 130.16C151.04 130.119 151.147 130.046 151.23 129.95C151.325 129.839 151.397 129.71 151.44 129.57C151.505 129.38 151.535 129.18 151.53 128.98V128.89C151.535 128.699 151.505 128.509 151.44 128.33C151.399 128.195 151.327 128.072 151.23 127.97C151.147 127.874 151.04 127.802 150.92 127.76C150.688 127.671 150.432 127.671 150.2 127.76C150.08 127.802 149.973 127.874 149.89 127.97C149.793 128.072 149.721 128.195 149.68 128.33C149.624 128.511 149.597 128.7 149.6 128.89V128.98C149.597 129.18 149.624 129.378 149.68 129.57C149.723 129.71 149.795 129.839 149.89 129.95C149.973 130.046 150.08 130.119 150.2 130.16C150.315 130.203 150.437 130.226 150.56 130.23ZM152.87 130.75H152.69V130.18H152.77C152.852 130.18 152.932 130.155 153 130.11C153.076 130.033 153.128 129.936 153.15 129.83C153.198 129.623 153.229 129.412 153.24 129.2C153.24 128.93 153.24 128.57 153.24 128.12V127.22H155.68V130.7H155V127.7H153.74V128.18C153.745 128.614 153.725 129.048 153.68 129.48C153.654 129.748 153.59 130.01 153.49 130.26C153.435 130.411 153.329 130.539 153.19 130.62C153.059 130.682 152.915 130.713 152.77 130.71L152.87 130.75ZM156.73 127.22H159V127.74H157.26V128.65H158.85V129.17H157.26V130.17H159V130.69H156.66V127.21L156.73 127.22ZM159.93 127.22H160.53V128.65H162.21V127.22H162.81V130.7H162.21V129.17H160.53V130.7H159.93V127.22ZM163.85 127.22H164.44V129.75L166.15 127.22H166.73V130.7H166V128.17L164.29 130.7H163.72V127.22H163.85ZM167.76 127.22H168.36V129.75L170.07 127.22H170.64V130.7H170V128.17L168.29 130.7H167.71V127.22H167.76ZM169.2 127C168.96 127.016 168.722 126.945 168.53 126.8C168.454 126.723 168.395 126.63 168.357 126.529C168.319 126.427 168.303 126.318 168.31 126.21H168.86C168.85 126.323 168.879 126.435 168.94 126.53C169.011 126.593 169.105 126.626 169.2 126.62C169.247 126.625 169.295 126.619 169.34 126.603C169.385 126.588 169.426 126.563 169.46 126.53C169.53 126.439 169.562 126.324 169.55 126.21H170C170.005 126.318 169.987 126.426 169.95 126.527C169.912 126.629 169.854 126.721 169.78 126.8C169.585 126.948 169.343 127.019 169.1 127H169.2ZM172.6 129.1V129.56L171.51 130.5V129.9L172.18 129.34L171.51 128.78V128.17L172.6 129.1ZM173.77 129.1V129.56L172.67 130.5V129.9L173.34 129.34L172.67 128.78V128.17L173.77 129.1Z" fill="#666666"/>
<path fill-rule="evenodd" clip-rule="evenodd" d="M43.77 11.59C48.3 3.12997 60.97 -3.27003 74.44 2.37997C85.15 -0.700032 96.38 -0.390032 104 5.29997L85.75 5.01997L85.59 15.6H86.81C87.4573 15.6085 88.0965 15.7455 88.6904 16.003C89.2844 16.2605 89.8213 16.6334 90.27 17.1C91.1803 18.0443 91.6831 19.3084 91.67 20.62C91.6489 21.9258 91.1106 23.1699 90.1732 24.0792C89.2358 24.9885 87.9759 25.4887 86.67 25.47H85.47L85.31 36.04L95.87 36.2V34.99C95.9039 33.6865 96.4456 32.4479 97.3796 31.5382C98.3137 30.6284 99.5661 30.1195 100.87 30.12C102.17 30.159 103.403 30.7029 104.309 31.6364C105.214 32.5699 105.721 33.8195 105.72 35.12V36.3L115.07 36.44H116.27L116.63 12.85C132.9 15.08 141.63 36.72 126.51 50.93C126.331 53.4416 125.641 55.8902 124.482 58.1256C123.323 60.3611 121.719 62.3362 119.77 63.93L115.77 42.93L107.77 44.46C107.645 43.8034 107.392 43.1778 107.026 42.6189C106.659 42.06 106.186 41.5788 105.634 41.2027C105.081 40.8266 104.46 40.563 103.806 40.427C103.151 40.291 102.477 40.2852 101.82 40.41C101.163 40.5347 100.538 40.7876 99.9789 41.1541C99.42 41.5207 98.9388 41.9937 98.5627 42.5462C98.1866 43.0987 97.9231 43.7199 97.7871 44.3742C97.651 45.0286 97.6453 45.7034 97.77 46.36L89.07 48.01L90.47 55.26C93.41 55.37 96.11 57.08 96.67 60.07C97.23 63.06 96.27 66.29 92.85 67.68L93.73 72.45C91.16 72.59 88.53 72.61 85.87 72.5L85.55 70.7C86.983 70.1612 88.1828 69.139 88.9423 67.8099C89.7018 66.4807 89.9734 64.928 89.71 63.42C89.4445 61.9148 88.6618 60.5496 87.4969 59.56C86.3321 58.5704 84.8583 58.0187 83.33 58L81.76 49.06L72.63 50.67C72.1714 49.429 71.3444 48.3578 70.26 47.6C68.8663 46.6259 67.1501 46.2282 65.47 46.49H65.36C63.8521 46.7516 62.4835 47.5329 61.4916 48.6983C60.4997 49.8637 59.9472 51.3397 59.93 52.87L52.39 54.19L51.2 54.4L54.84 75.17C50.6962 74.7053 46.8013 72.9572 43.7 70.17C37.4275 75.1635 31.9426 81.0731 27.43 87.7C25.0814 87.1442 22.6424 87.0863 20.27 87.53C22.1502 81.224 24.5139 75.0725 27.34 69.13C17.72 68.44 16.03 57.13 19.44 52.58C4.44001 35.02 21.69 7.99997 43.79 11.58L43.77 11.59ZM106.71 7.70997L88.09 7.41997L88 13.3C89.7056 13.6144 91.2445 14.5235 92.3431 15.8656C93.4417 17.2077 94.0288 18.8958 94 20.63C93.9746 22.3728 93.3314 24.0501 92.185 25.3631C91.0387 26.6761 89.4635 27.5396 87.74 27.8L87.65 33.65L93.5 33.74C93.8145 32.0343 94.7235 30.4955 96.0656 29.3969C97.4077 28.2983 99.0959 27.7112 100.83 27.74C102.571 27.7678 104.246 28.412 105.557 29.5582C106.868 30.7043 107.73 32.2782 107.99 34L113.84 34.09L114.16 12.76C112.851 12.7396 111.542 12.8367 110.25 13.05C109.32 11.1202 108.107 9.34052 106.65 7.76997L106.71 7.70997ZM77.43 41.3L75.33 33.3L76.33 32.91C77.2847 32.5463 78.0718 31.8433 78.5405 30.9355C79.0091 30.0277 79.1265 28.9789 78.87 27.99C78.6121 26.999 77.9961 26.1388 77.1409 25.5755C76.2858 25.0122 75.2523 24.7858 74.24 24.94L73.17 25.1L70.79 15.97L45.43 22.6L52.05 47.95L57.58 46.51C57.7131 45.1561 58.2378 43.8704 59.09 42.81C60.216 41.4013 61.7545 40.3803 63.49 39.89C65.2989 39.4589 67.1961 39.5879 68.93 40.26C70.2145 40.739 71.3258 41.5925 72.12 42.71L77.43 41.3ZM78.19 34.67C79.2629 34.0372 80.1361 33.1154 80.71 32.01C81.2146 31.0193 81.4594 29.9167 81.4217 28.8056C81.384 27.6945 81.065 26.6111 80.4945 25.6568C79.9239 24.7026 79.1206 23.9088 78.1596 23.3497C77.1986 22.7905 76.1115 22.4844 75 22.46L72.53 13.01L42.53 20.85L50.37 50.85L60 48.3V47.3C59.9576 46.2117 60.3131 45.1452 61 44.3C61.7946 43.2995 62.8819 42.5723 64.11 42.22C65.4248 41.9126 66.8018 42.0102 68.06 42.5C69.1006 42.8808 69.9583 43.6419 70.46 44.63L70.89 45.52L80.36 43.05L78.18 34.7L78.19 34.67ZM83.37 72.3L82.76 68.78L83.95 68.58C85.0001 68.3554 85.9222 67.7326 86.5227 66.8424C87.1232 65.9522 87.3552 64.8639 87.1701 63.8062C86.985 62.7485 86.3971 61.8037 85.5299 61.1704C84.6628 60.537 83.5839 60.2645 82.52 60.41L81.33 60.62L79.78 51.8L70.53 53.42V52.1C70.3215 51.0375 69.7031 50.0998 68.8085 49.4897C67.914 48.8797 66.8153 48.6462 65.75 48.84C64.6745 49.0373 63.7204 49.6512 63.095 50.5481C62.4696 51.4451 62.2234 52.5526 62.41 53.63V53.74V54.86L61.41 55.03L54 56.3L57.35 75.39C61 76.08 70.5 75.3 74.65 71.3C77.56 71.76 80.48 72.11 83.37 72.3Z" fill="#6D097A"/>
<path fill-rule="evenodd" clip-rule="evenodd" d="M130.37 77.92L156.09 81.92L160.09 56.2L152.36 54.98C152.545 53.7117 152.223 52.4214 151.463 51.3891C150.703 50.3568 149.567 49.6656 148.301 49.4656C147.035 49.2655 145.741 49.5727 144.7 50.3205C143.659 51.0683 142.955 52.1963 142.74 53.46L134.37 52.15L133.17 60.3C134.318 60.728 135.285 61.5356 135.91 62.5887C136.536 63.6419 136.783 64.8773 136.61 66.09C136.21 68.24 134.61 69.7 131.67 69.95L130.37 77.92Z" fill="#00926F"/>
<path fill-rule="evenodd" clip-rule="evenodd" d="M22.82 104.46C21.8045 104.473 20.7929 104.331 19.82 104.04C18.9677 103.785 18.1777 103.356 17.5 102.78C16.8454 102.208 16.332 101.493 16 100.69C15.6245 99.7355 15.4443 98.7153 15.47 97.69V97.2C15.4437 96.1764 15.617 95.1574 15.98 94.2C16.293 93.399 16.7857 92.6806 17.42 92.1C18.0718 91.5247 18.8389 91.0951 19.67 90.84C20.609 90.55 21.5874 90.4083 22.57 90.42C24.99 90.42 26.78 90.99 27.94 92.15C28.5533 92.8462 29.022 93.6573 29.319 94.5363C29.616 95.4153 29.7353 96.3445 29.67 97.27V98.77H21C21.0257 99.2283 21.1974 99.6663 21.49 100.02C21.7623 100.273 22.1186 100.415 22.49 100.42H29.35C29.0812 101.56 28.3965 102.558 27.43 103.22C26.0301 104.05 24.4154 104.447 22.79 104.36L22.82 104.46ZM22.69 94.46C22.4684 94.4396 22.2449 94.4685 22.0358 94.5445C21.8266 94.6206 21.6368 94.742 21.48 94.9C21.2329 95.2095 21.0833 95.5853 21.05 95.98H24.24C24.2046 95.5876 24.059 95.2132 23.82 94.9C23.6776 94.7454 23.5018 94.6255 23.3059 94.5492C23.1101 94.4729 22.8994 94.4424 22.69 94.46ZM30.92 90.9H37.92L39.69 95.9L41.46 90.9H48.34V104.11H43.34V97.01L41.34 101.87H37.85L35.85 97.01V104.11H30.85V90.88L30.92 90.9ZM56.92 104.48C55.9045 104.493 54.8929 104.352 53.92 104.06C53.0677 103.805 52.2777 103.376 51.6 102.8C50.9418 102.229 50.4249 101.514 50.09 100.71C49.706 99.7576 49.5222 98.7364 49.55 97.71V97.22C49.5269 96.1957 49.7035 95.1767 50.07 94.22C50.383 93.419 50.8757 92.7006 51.51 92.12C52.1582 91.5449 52.922 91.1153 53.75 90.86C54.6924 90.57 55.6741 90.4283 56.66 90.44C59.08 90.44 60.87 91.01 62.03 92.17C62.6433 92.8662 63.1121 93.6773 63.409 94.5563C63.706 95.4352 63.8253 96.3645 63.76 97.29V98.79H55.11C55.1357 99.2483 55.3074 99.6863 55.6 100.04C55.7777 100.196 55.9858 100.314 56.2112 100.387C56.4366 100.459 56.6745 100.484 56.91 100.46H63.47C63.2012 101.6 62.5165 102.598 61.55 103.26C60.1496 104.089 58.5353 104.486 56.91 104.4L56.92 104.48ZM56.79 94.48C56.5683 94.4589 56.3447 94.4874 56.1354 94.5635C55.9261 94.6397 55.7364 94.7614 55.58 94.92C55.3329 95.2295 55.1832 95.6053 55.15 96H58.34C58.3068 95.6053 58.1571 95.2295 57.91 94.92C57.7705 94.7644 57.5966 94.6436 57.4022 94.5672C57.2077 94.4908 56.9981 94.4609 56.79 94.48ZM65.01 90.92H70.5V95.21H73.24V90.92H78.72V104.13H73.24V99.59H70.5V104.13H65.01V90.88V90.92ZM90.68 104.13H80.5V90.88H86V99.7H88.25V90.88H93.73V99.7H95.22V107.2H90.74V104.09L90.68 104.13ZM96.41 90.92H101.89V96.4L105.51 90.92H110.12V104.13H104.63V98.65L101.02 104.13H96.41V90.88V90.92ZM113.83 99.49C113.156 99.1413 112.6 98.6023 112.23 97.94C111.888 97.2542 111.717 96.4961 111.73 95.73C111.721 95.0482 111.836 94.3704 112.07 93.73C112.282 93.1532 112.624 92.6331 113.07 92.21C113.583 91.7497 114.19 91.4082 114.85 91.21C115.687 90.9618 116.557 90.8438 117.43 90.86H125V104.07H119.5V100.3H119L117.23 104.14H111.3L113.89 99.5L113.83 99.49ZM117.22 95.73C117.208 95.8669 117.232 96.0047 117.289 96.1294C117.347 96.2541 117.437 96.3612 117.55 96.44C117.788 96.5827 118.062 96.6555 118.34 96.65H119.46V94.81H118.34C118.063 94.8014 117.789 94.8707 117.55 95.01C117.449 95.0899 117.369 95.1941 117.318 95.3129C117.267 95.4317 117.247 95.5614 117.26 95.69L117.22 95.73Z" fill="#6D097A"/>
<path fill-rule="evenodd" clip-rule="evenodd" d="M129.54 104.45C129.139 104.45 128.741 104.372 128.37 104.22C128.019 104.069 127.7 103.851 127.43 103.58C127.152 103.293 126.935 102.953 126.79 102.58C126.631 102.211 126.553 101.812 126.56 101.41C126.552 101.002 126.63 100.596 126.79 100.22C126.935 99.8474 127.152 99.5074 127.43 99.22C127.697 98.9507 128.017 98.7396 128.37 98.6C129.123 98.2937 129.967 98.2937 130.72 98.6C131.073 98.7396 131.393 98.9507 131.66 99.22C131.938 99.5074 132.155 99.8474 132.3 100.22C132.463 100.595 132.545 101.001 132.54 101.41C132.544 101.813 132.462 102.211 132.3 102.58C132.155 102.953 131.938 103.293 131.66 103.58C131.39 103.851 131.071 104.069 130.72 104.22C130.345 104.373 129.945 104.451 129.54 104.45ZM134.65 90.87H139.74V92.37C140.081 91.813 140.564 91.3573 141.14 91.05C141.948 90.6437 142.847 90.4542 143.75 90.5C144.344 90.4607 144.94 90.5473 145.498 90.7541C146.056 90.9609 146.565 91.2832 146.99 91.7C147.801 92.6899 148.202 93.9534 148.11 95.23V104.08H142.63V96.35C142.643 95.9956 142.545 95.646 142.35 95.35C142.252 95.2221 142.124 95.1198 141.978 95.0519C141.832 94.984 141.671 94.9525 141.51 94.96C141.325 94.9494 141.14 94.9788 140.968 95.0461C140.795 95.1134 140.639 95.217 140.51 95.35C140.289 95.6352 140.175 95.9894 140.19 96.35V104.08H134.7V90.87H134.65ZM156.58 104.45C155.564 104.463 154.553 104.322 153.58 104.03C152.728 103.775 151.938 103.346 151.26 102.77C150.605 102.199 150.091 101.484 149.76 100.68C149.375 99.7279 149.191 98.7065 149.22 97.68V97.19C149.199 96.1863 149.372 95.188 149.73 94.25C150.04 93.4422 150.537 92.7192 151.18 92.14C151.831 91.5686 152.594 91.1395 153.42 90.88C154.359 90.5901 155.337 90.4484 156.32 90.46C158.747 90.46 160.537 91.0367 161.69 92.19C162.307 92.884 162.778 93.6949 163.075 94.5744C163.372 95.4539 163.489 96.3842 163.42 97.31V98.81H154.78C154.803 99.2671 154.971 99.7051 155.26 100.06C155.434 100.21 155.635 100.325 155.853 100.397C156.071 100.469 156.301 100.497 156.53 100.48H163.13C162.861 101.614 162.18 102.608 161.22 103.27C159.816 104.099 158.198 104.496 156.57 104.41L156.58 104.45ZM156.46 94.45C156.239 94.4262 156.015 94.4525 155.806 94.5269C155.596 94.6014 155.406 94.7221 155.25 94.88C154.997 95.1911 154.844 95.5708 154.81 95.97H158C157.966 95.5741 157.821 95.196 157.58 94.88C157.439 94.7269 157.265 94.6083 157.07 94.5338C156.876 94.4592 156.667 94.4305 156.46 94.45ZM170.91 104.3C170.095 104.314 169.282 104.223 168.49 104.03C167.861 103.878 167.285 103.56 166.82 103.11C166.346 102.627 166.002 102.032 165.82 101.38C165.597 100.488 165.493 99.5697 165.51 98.65V87.88H171V90.88H173.5V95.3H171V97.49C171 97.92 171 98.29 171.05 98.6C171.075 98.8586 171.149 99.11 171.27 99.34C171.374 99.5225 171.541 99.6611 171.74 99.73C172.005 99.8283 172.287 99.8725 172.57 99.86C172.961 99.8582 173.352 99.8315 173.74 99.78V104.02C173.28 104.1 172.74 104.17 172.26 104.22C171.78 104.27 171.31 104.3 170.91 104.3Z" fill="#00926F"/>
<path d="M2.46007 100.75L3.26132 99.7605C4.16272 98.592 4.67602 96.8393 4.80122 94.5023L5.01405 89.0939H13.7402V100.75H15.4804V106.621H13.1643V102.64H3.71202V106.621H1.39591L1.40843 100.75H2.46007ZM5.20184 100.75H11.4241V91.2347H7.25505L7.11733 94.4648C6.97544 97.1606 6.33695 99.2556 5.20184 100.75Z" fill="#6D097A"/>
</svg>
