<svg width="149" height="301" viewBox="0 0 149 301" fill="none" xmlns="http://www.w3.org/2000/svg">
<path fill-rule="evenodd" clip-rule="evenodd" d="M149 26.2201C132.523 25.9242 116.153 28.9139 100.845 35.0146C85.5362 41.1154 71.5966 50.2048 59.8399 61.7523C48.0832 73.2998 38.7449 87.0739 32.3702 102.27C25.9956 117.467 22.7125 133.781 22.7125 150.26C22.7125 166.739 25.9956 183.053 32.3702 198.25C38.7449 213.446 48.0832 227.22 59.8399 238.768C71.5966 250.315 85.5362 259.405 100.845 265.505C116.153 271.606 132.523 274.596 149 274.3V300.3C109.412 299.977 71.5563 284.024 43.6772 255.917C15.7982 227.809 0.155029 189.824 0.155029 150.235C0.155029 110.646 15.7982 72.6611 43.6772 44.5536C71.5563 16.446 109.412 0.493207 149 0.170044V26.2201Z" fill="#9A34A8"/>
</svg>
